<?xml version="1.0" encoding="iso-8859-1"?>
<!-- Generator: Adobe Illustrator 19.0.0, SVG Export Plug-In . SVG Version: 6.00 Build 0)  -->
<svg version="1.1" id="Layer_1" xmlns="http://www.w3.org/2000/svg" xmlns:xlink="http://www.w3.org/1999/xlink" x="0px" y="0px"
	 viewBox="0 0 512 512" style="enable-background:new 0 0 512 512;" xml:space="preserve">
<circle style="fill:#D35933;" cx="256" cy="256" r="256"/>
<g>
	<polygon style="fill:#B54324;" points="136.668,165.428 198.339,225.994 167.65,276.077 111.156,219.582 	"/>
	<path style="fill:#B54324;" d="M275.921,511.233c129.279-9.95,231.646-115.929,235.923-246.72L366.549,119.217l-54.665,41.248
		l22.611,22.611L164.573,396.136L275.921,511.233z"/>
</g>
<rect x="142.222" y="135.758" style="fill:#FFFFFF;" width="227.556" height="148.687"/>
<rect x="255.431" y="135.758" style="fill:#D0D1D3;" width="114.347" height="148.687"/>
<path style="fill:#59595B;" d="M355.987,260.31h-10.343c0-18.061-14.693-32.754-32.754-32.754s-32.754,14.693-32.754,32.754h-10.343
	c0-23.764,19.334-43.098,43.098-43.098S355.987,236.546,355.987,260.31z"/>
<g>
	<path style="fill:#272525;" d="M199.685,398.222h-29.163c-5.275,0-9.554-4.277-9.554-9.554v-37.783
		c0-5.275,4.277-9.554,9.554-9.554h29.163c5.275,0,9.552,4.277,9.552,9.554v37.783C209.239,393.945,204.962,398.222,199.685,398.222
		z"/>
	<path style="fill:#272525;" d="M341.476,398.222h-29.163c-5.275,0-9.554-4.277-9.554-9.554v-37.783
		c0-5.275,4.277-9.554,9.554-9.554h29.163c5.275,0,9.554,4.277,9.554,9.554v37.783C351.03,393.945,346.753,398.222,341.476,398.222z
		"/>
</g>
<path style="fill:#FFC61B;" d="M164.49,369.778h183.02c12.298,0,22.268-9.969,22.268-22.268V256H142.222v91.51
	C142.222,359.808,152.192,369.778,164.49,369.778z"/>
<path style="fill:#EAA22F;" d="M255.426,256v113.778h92.084c12.298,0,22.268-9.969,22.268-22.268V256H255.426z"/>
<path style="fill:#FFC61B;" d="M142.222,142.222h227.556v-13.864c0-8.052-6.528-14.581-14.581-14.581H156.803
	c-8.052,0-14.581,6.528-14.581,14.581V142.222z"/>
<path style="fill:#EAA22F;" d="M369.778,128.359c0-8.052-6.528-14.581-14.581-14.581h-99.771v28.444h114.352V128.359z"/>
<path style="fill:#FFC61B;" d="M114.245,221.091h19.322c2.519,0,4.561-2.043,4.561-4.561v-47.766c0-2.519-2.043-4.561-4.561-4.561
	h-19.322c-2.519,0-4.561,2.043-4.561,4.561v47.766C109.684,219.048,111.726,221.091,114.245,221.091z"/>
<path style="fill:#EAA22F;" d="M378.434,221.091h19.322c2.519,0,4.561-2.043,4.561-4.561v-47.766c0-2.519-2.043-4.561-4.561-4.561
	h-19.322c-2.519,0-4.561,2.043-4.561,4.561v47.766C373.872,219.048,375.915,221.091,378.434,221.091z"/>
<g>
	<rect x="300.822" y="284.444" style="fill:#FF5419;" width="68.956" height="28.444"/>
	<rect x="142.222" y="284.444" style="fill:#FF5419;" width="68.956" height="28.444"/>
</g>
<g>
	<rect x="160.323" y="326.68" style="fill:#FFEDB5;" width="191.354" height="5.172"/>
	<rect x="160.323" y="339.609" style="fill:#FFEDB5;" width="191.354" height="5.172"/>
	<rect x="160.323" y="352.539" style="fill:#FFEDB5;" width="191.354" height="5.172"/>
</g>
<g>
	<rect x="255.431" y="326.68" style="fill:#FEE187;" width="96.251" height="5.172"/>
	<rect x="255.431" y="339.609" style="fill:#FEE187;" width="96.251" height="5.172"/>
	<rect x="255.431" y="352.539" style="fill:#FEE187;" width="96.251" height="5.172"/>
</g>
<g>
</g>
<g>
</g>
<g>
</g>
<g>
</g>
<g>
</g>
<g>
</g>
<g>
</g>
<g>
</g>
<g>
</g>
<g>
</g>
<g>
</g>
<g>
</g>
<g>
</g>
<g>
</g>
<g>
</g>
</svg>
